<mxfile host="app.diagrams.net" modified="2022-05-04T11:09:36.825Z" agent="5.0 (Windows NT 10.0; Win64; x64) AppleWebKit/537.36 (KHTML, like Gecko) Chrome/98.0.4758.141 YaBrowser/22.3.3.852 Yowser/2.5 Safari/537.36" etag="s3lSHHezQEHzsU9A7ljh" version="17.4.6" type="github">
  <diagram name="Page-1" id="2a216829-ef6e-dabb-86c1-c78162f3ba2b">
    <mxGraphModel dx="1038" dy="551" grid="1" gridSize="10" guides="1" tooltips="1" connect="1" arrows="1" fold="1" page="1" pageScale="1" pageWidth="850" pageHeight="1100" background="none" math="0" shadow="0">
      <root>
        <mxCell id="0" />
        <mxCell id="1" parent="0" />
        <mxCell id="n-bltV9YuMnR6yL7ZxgR-3" value="Информационная система портал &quot;TN Risk&quot;" style="swimlane;startSize=30;html=1;whiteSpace=wrap;container=1;collapsible=0;childLayout=stackLayout;resizeParent=1;dropTarget=0;horizontalStack=0;spacing=0;strokeColor=#b2b2b2;strokeOpacity=100;fillOpacity=100;rounded=1;absoluteArcSize=1;arcSize=12;horizontal=0;fillColor=#a5a7aa;strokeWidth=1.5;fontSize=20;fontColor=#ffffff;fontStyle=3;" parent="1" vertex="1">
          <mxGeometry x="10" y="350" width="3650" height="670" isRotated="1" as="geometry" />
        </mxCell>
        <mxCell id="n-bltV9YuMnR6yL7ZxgR-5" value="Контролер СБЕ" style="swimlane;startSize=30;html=1;whiteSpace=wrap;container=1;collapsible=0;childLayout=stackLayout;resizeParent=1;dropTarget=0;horizontalStack=0;spacing=0;strokeColor=#b2b2b2;strokeOpacity=100;fillOpacity=100;rounded=1;absoluteArcSize=1;arcSize=12;horizontal=0;fillColor=#e81313;strokeWidth=1.5;fontSize=20;fontColor=#ffffff;fontStyle=3;" parent="1" vertex="1">
          <mxGeometry x="10" y="10" width="3650" height="340" isRotated="1" as="geometry" />
        </mxCell>
        <mxCell id="n-bltV9YuMnR6yL7ZxgR-6" value="" style="swimlane;html=1;whiteSpace=wrap;container=1;connectable=0;collapsible=0;fontStyle=0;startSize=30;dropTarget=0;rounded=0;horizontal=0;swimlaneLine=0;fillColor=none;spacing=0;strokeColor=#b2b2b2;strokeOpacity=100;fillOpacity=100;strokeWidth=1.5;fontSize=13;" parent="n-bltV9YuMnR6yL7ZxgR-5" vertex="1">
          <mxGeometry x="30" width="3620" height="340" as="geometry" />
        </mxCell>
        <mxCell id="n-bltV9YuMnR6yL7ZxgR-112" style="edgeStyle=orthogonalEdgeStyle;rounded=0;orthogonalLoop=1;jettySize=auto;html=1;exitX=1;exitY=0.5;exitDx=0;exitDy=0;entryX=0;entryY=0.5;entryDx=0;entryDy=0;startArrow=none;startFill=0;endArrow=classic;endFill=1;" parent="1" source="n-bltV9YuMnR6yL7ZxgR-11" target="n-bltV9YuMnR6yL7ZxgR-110" edge="1">
          <mxGeometry relative="1" as="geometry" />
        </mxCell>
        <mxCell id="n-bltV9YuMnR6yL7ZxgR-11" value="Приказ от руководителя СБЕ об актуализации рисков и КП" style="html=1;overflow=block;blockSpacing=1;whiteSpace=wrap;shape=mxgraph.bpmn.shape;verticalLabelPosition=bottom;verticalAlign=top;outline=standard;fontSize=13.3;fontColor=#333333;fontStyle=2;spacing=0;strokeColor=#333333;strokeOpacity=100;fillOpacity=100;rounded=1;absoluteArcSize=1;arcSize=7.5;fillColor=#d2d3d5;strokeWidth=0.8;" parent="1" vertex="1">
          <mxGeometry x="60" y="111.5" width="92" height="87" as="geometry" />
        </mxCell>
        <mxCell id="n-bltV9YuMnR6yL7ZxgR-155" style="edgeStyle=orthogonalEdgeStyle;rounded=0;orthogonalLoop=1;jettySize=auto;html=1;entryX=0.5;entryY=0;entryDx=0;entryDy=0;startArrow=none;startFill=0;endArrow=classic;endFill=1;" parent="1" source="n-bltV9YuMnR6yL7ZxgR-12" target="n-bltV9YuMnR6yL7ZxgR-154" edge="1">
          <mxGeometry relative="1" as="geometry" />
        </mxCell>
        <mxCell id="n-bltV9YuMnR6yL7ZxgR-12" value="Нажимаем кнопку &quot;Создать приказ&quot;" style="html=1;overflow=block;blockSpacing=1;whiteSpace=wrap;fontSize=14.9;fontColor=#333333;fontStyle=2;spacing=3.8;strokeColor=#333333;strokeOpacity=100;fillOpacity=100;rounded=1;absoluteArcSize=1;arcSize=7.5;fillColor=#3278ca;strokeWidth=0.8;" parent="1" vertex="1">
          <mxGeometry x="650" y="125" width="140" height="60" as="geometry" />
        </mxCell>
        <mxCell id="n-bltV9YuMnR6yL7ZxgR-165" style="edgeStyle=orthogonalEdgeStyle;rounded=0;orthogonalLoop=1;jettySize=auto;html=1;entryX=0.5;entryY=0;entryDx=0;entryDy=0;startArrow=none;startFill=0;endArrow=classic;endFill=1;" parent="1" source="n-bltV9YuMnR6yL7ZxgR-16" target="n-bltV9YuMnR6yL7ZxgR-164" edge="1">
          <mxGeometry relative="1" as="geometry" />
        </mxCell>
        <mxCell id="n-bltV9YuMnR6yL7ZxgR-16" value="Заполняем поле &quot;Начало акт. в ПП&quot;" style="html=1;overflow=block;blockSpacing=1;whiteSpace=wrap;fontSize=14.9;fontColor=#333333;fontStyle=2;spacing=3.8;strokeColor=#333333;strokeOpacity=100;fillOpacity=100;rounded=1;absoluteArcSize=1;arcSize=7.5;fillColor=#3278ca;strokeWidth=0.8;" parent="1" vertex="1">
          <mxGeometry x="900" y="128.5" width="150" height="50" as="geometry" />
        </mxCell>
        <mxCell id="n-bltV9YuMnR6yL7ZxgR-193" style="edgeStyle=orthogonalEdgeStyle;rounded=0;orthogonalLoop=1;jettySize=auto;html=1;entryX=0.5;entryY=0;entryDx=0;entryDy=0;startArrow=none;startFill=0;endArrow=classic;endFill=1;" parent="1" source="n-bltV9YuMnR6yL7ZxgR-21" target="n-bltV9YuMnR6yL7ZxgR-180" edge="1">
          <mxGeometry relative="1" as="geometry" />
        </mxCell>
        <mxCell id="n-bltV9YuMnR6yL7ZxgR-21" value="Заполняем поле &quot;Конец акт. в ПП&quot;" style="html=1;overflow=block;blockSpacing=1;whiteSpace=wrap;fontSize=14.9;fontColor=#333333;fontStyle=2;spacing=3.8;strokeColor=#333333;strokeOpacity=100;fillOpacity=100;rounded=1;absoluteArcSize=1;arcSize=7.5;fillColor=#3278ca;strokeWidth=0.8;" parent="1" vertex="1">
          <mxGeometry x="1101.25" y="130" width="140" height="50" as="geometry" />
        </mxCell>
        <mxCell id="n-bltV9YuMnR6yL7ZxgR-99" style="edgeStyle=orthogonalEdgeStyle;rounded=0;orthogonalLoop=1;jettySize=auto;html=1;entryX=0;entryY=0.5;entryDx=0;entryDy=0;exitX=0.5;exitY=0;exitDx=0;exitDy=0;exitPerimeter=0;" parent="1" source="n-bltV9YuMnR6yL7ZxgR-96" target="n-bltV9YuMnR6yL7ZxgR-16" edge="1">
          <mxGeometry relative="1" as="geometry" />
        </mxCell>
        <mxCell id="n-bltV9YuMnR6yL7ZxgR-96" value="" style="points=[[0.25,0.25,0],[0.5,0,0],[0.75,0.25,0],[1,0.5,0],[0.75,0.75,0],[0.5,1,0],[0.25,0.75,0],[0,0.5,0]];shape=mxgraph.bpmn.gateway2;html=1;verticalLabelPosition=bottom;labelBackgroundColor=#ffffff;verticalAlign=top;align=center;perimeter=rhombusPerimeter;outlineConnect=0;outline=none;symbol=none;" parent="1" vertex="1">
          <mxGeometry x="840" y="465" width="50" height="50" as="geometry" />
        </mxCell>
        <mxCell id="n-bltV9YuMnR6yL7ZxgR-113" style="edgeStyle=orthogonalEdgeStyle;rounded=0;orthogonalLoop=1;jettySize=auto;html=1;exitX=0.5;exitY=1;exitDx=0;exitDy=0;startArrow=none;startFill=0;endArrow=classic;endFill=1;" parent="1" source="n-bltV9YuMnR6yL7ZxgR-110" target="n-bltV9YuMnR6yL7ZxgR-111" edge="1">
          <mxGeometry relative="1" as="geometry" />
        </mxCell>
        <mxCell id="n-bltV9YuMnR6yL7ZxgR-110" value="Открываем страницу портала в браузере" style="html=1;overflow=block;blockSpacing=1;whiteSpace=wrap;fontSize=13.3;fontColor=#333333;align=center;spacing=3.8;strokeColor=#333333;strokeOpacity=100;fillOpacity=100;rounded=1;absoluteArcSize=1;arcSize=7.5;fillColor=#3278ca;strokeWidth=0.8;" parent="1" vertex="1">
          <mxGeometry x="180" y="120" width="80" height="70" as="geometry" />
        </mxCell>
        <mxCell id="n-bltV9YuMnR6yL7ZxgR-120" style="edgeStyle=orthogonalEdgeStyle;rounded=0;orthogonalLoop=1;jettySize=auto;html=1;exitX=1;exitY=0.5;exitDx=0;exitDy=0;entryX=0;entryY=0.5;entryDx=0;entryDy=0;startArrow=none;startFill=0;endArrow=classic;endFill=1;" parent="1" source="n-bltV9YuMnR6yL7ZxgR-111" target="n-bltV9YuMnR6yL7ZxgR-116" edge="1">
          <mxGeometry relative="1" as="geometry">
            <Array as="points">
              <mxPoint x="300" y="543" />
              <mxPoint x="300" y="155" />
            </Array>
          </mxGeometry>
        </mxCell>
        <mxCell id="n-bltV9YuMnR6yL7ZxgR-111" value="Формирование главной страницы портала" style="html=1;overflow=block;blockSpacing=1;whiteSpace=wrap;fontSize=13.3;fontColor=#333333;align=center;spacing=3.8;strokeColor=#333333;strokeOpacity=100;fillOpacity=100;rounded=1;absoluteArcSize=1;arcSize=7.5;fillColor=#3278ca;strokeWidth=0.8;" parent="1" vertex="1">
          <mxGeometry x="153.75" y="490" width="132.5" height="106" as="geometry" />
        </mxCell>
        <mxCell id="n-bltV9YuMnR6yL7ZxgR-140" style="edgeStyle=orthogonalEdgeStyle;rounded=0;orthogonalLoop=1;jettySize=auto;html=1;entryX=0.5;entryY=0;entryDx=0;entryDy=0;startArrow=none;startFill=0;endArrow=classic;endFill=1;" parent="1" source="n-bltV9YuMnR6yL7ZxgR-114" target="n-bltV9YuMnR6yL7ZxgR-134" edge="1">
          <mxGeometry relative="1" as="geometry" />
        </mxCell>
        <mxCell id="n-bltV9YuMnR6yL7ZxgR-114" value="&lt;span style=&quot;font-size: 15px ; font-style: italic&quot;&gt;В блоке &quot;Внутренний контроль&quot;, нажимаем на кнопку &quot;Актуализация&quot;&lt;/span&gt;" style="html=1;overflow=block;blockSpacing=1;whiteSpace=wrap;fontSize=13.3;fontColor=#333333;align=center;spacing=3.8;strokeColor=#333333;strokeOpacity=100;fillOpacity=100;rounded=1;absoluteArcSize=1;arcSize=7.5;fillColor=#3278ca;strokeWidth=0.8;" parent="1" vertex="1">
          <mxGeometry x="440" y="95" width="140" height="120" as="geometry" />
        </mxCell>
        <mxCell id="n-bltV9YuMnR6yL7ZxgR-127" style="edgeStyle=orthogonalEdgeStyle;rounded=0;orthogonalLoop=1;jettySize=auto;html=1;exitX=1;exitY=0.5;exitDx=0;exitDy=0;entryX=0;entryY=0.5;entryDx=0;entryDy=0;startArrow=none;startFill=0;endArrow=classic;endFill=1;" parent="1" source="n-bltV9YuMnR6yL7ZxgR-116" edge="1">
          <mxGeometry relative="1" as="geometry">
            <mxPoint x="440" y="155" as="targetPoint" />
          </mxGeometry>
        </mxCell>
        <mxCell id="n-bltV9YuMnR6yL7ZxgR-136" style="edgeStyle=orthogonalEdgeStyle;rounded=0;orthogonalLoop=1;jettySize=auto;html=1;entryX=0.5;entryY=1;entryDx=0;entryDy=0;entryPerimeter=0;startArrow=none;startFill=0;endArrow=classic;endFill=1;" parent="1" source="n-bltV9YuMnR6yL7ZxgR-116" target="n-bltV9YuMnR6yL7ZxgR-135" edge="1">
          <mxGeometry relative="1" as="geometry" />
        </mxCell>
        <mxCell id="n-bltV9YuMnR6yL7ZxgR-116" value="Страница прогрузилась?" style="html=1;overflow=block;blockSpacing=1;shape=mxgraph.bpmn.shape;perimeter=rhombusPerimeter;background=gateway;verticalLabelPosition=bottom;verticalAlign=top;outline=none;symbol=exclusiveGw;strokeColor=#333333;strokeOpacity=100;fillOpacity=100;rounded=1;absoluteArcSize=1;arcSize=12;fillColor=#ffffff;strokeWidth=0.8;whiteSpace=wrap;fontSize=13.3;fontColor=#333333;align=center;spacing=0;" parent="1" vertex="1">
          <mxGeometry x="320" y="115" width="80" height="80" as="geometry" />
        </mxCell>
        <mxCell id="n-bltV9YuMnR6yL7ZxgR-138" style="edgeStyle=orthogonalEdgeStyle;rounded=0;orthogonalLoop=1;jettySize=auto;html=1;entryX=0.5;entryY=0;entryDx=0;entryDy=0;startArrow=none;startFill=0;endArrow=classic;endFill=1;" parent="1" source="n-bltV9YuMnR6yL7ZxgR-121" target="n-bltV9YuMnR6yL7ZxgR-110" edge="1">
          <mxGeometry relative="1" as="geometry" />
        </mxCell>
        <mxCell id="n-bltV9YuMnR6yL7ZxgR-121" value="Обращаемся в службу поддержки" style="html=1;overflow=block;blockSpacing=1;whiteSpace=wrap;fontSize=13.3;fontColor=#333333;align=center;spacing=3.8;strokeColor=#333333;strokeOpacity=100;fillOpacity=100;rounded=1;absoluteArcSize=1;arcSize=7.5;fillColor=#3278ca;strokeWidth=0.8;" parent="1" vertex="1">
          <mxGeometry x="175" y="20" width="90" height="70" as="geometry" />
        </mxCell>
        <mxCell id="n-bltV9YuMnR6yL7ZxgR-125" value="Нет" style="text;html=1;resizable=0;autosize=1;align=center;verticalAlign=middle;points=[];fillColor=none;strokeColor=none;rounded=0;" parent="1" vertex="1">
          <mxGeometry x="340" y="100" width="40" height="20" as="geometry" />
        </mxCell>
        <mxCell id="n-bltV9YuMnR6yL7ZxgR-128" value="Да" style="text;html=1;resizable=0;autosize=1;align=center;verticalAlign=middle;points=[];fillColor=none;strokeColor=none;rounded=0;" parent="1" vertex="1">
          <mxGeometry x="390" y="152" width="30" height="20" as="geometry" />
        </mxCell>
        <mxCell id="n-bltV9YuMnR6yL7ZxgR-150" style="edgeStyle=orthogonalEdgeStyle;rounded=0;orthogonalLoop=1;jettySize=auto;html=1;startArrow=none;startFill=0;endArrow=classic;endFill=1;entryX=0.5;entryY=0;entryDx=0;entryDy=0;" parent="1" source="n-bltV9YuMnR6yL7ZxgR-131" target="n-bltV9YuMnR6yL7ZxgR-132" edge="1">
          <mxGeometry relative="1" as="geometry" />
        </mxCell>
        <mxCell id="n-bltV9YuMnR6yL7ZxgR-131" value="&lt;span style=&quot;font-size: 15px ; font-style: italic&quot;&gt;по дефолту формирование страницы раздела &quot;Приказы на актуализацию&quot; для соответствующей роли (Контролер СБЕ)&lt;/span&gt;" style="html=1;overflow=block;blockSpacing=1;whiteSpace=wrap;fontSize=13.3;fontColor=#333333;align=center;spacing=3.8;strokeColor=#333333;strokeOpacity=100;fillOpacity=100;rounded=1;absoluteArcSize=1;arcSize=7.5;fillColor=#3278ca;strokeWidth=0.8;" parent="1" vertex="1">
          <mxGeometry x="420" y="636" width="180" height="140" as="geometry" />
        </mxCell>
        <mxCell id="n-bltV9YuMnR6yL7ZxgR-152" style="edgeStyle=orthogonalEdgeStyle;rounded=0;orthogonalLoop=1;jettySize=auto;html=1;entryX=0.5;entryY=0;entryDx=0;entryDy=0;startArrow=none;startFill=0;endArrow=classic;endFill=1;" parent="1" source="n-bltV9YuMnR6yL7ZxgR-132" target="n-bltV9YuMnR6yL7ZxgR-151" edge="1">
          <mxGeometry relative="1" as="geometry" />
        </mxCell>
        <mxCell id="n-bltV9YuMnR6yL7ZxgR-132" value="&lt;span style=&quot;font-size: 15px ; font-style: italic&quot;&gt;Формирование таблицы приказов на актуализацию согласно правилам сортировки&lt;/span&gt;" style="html=1;overflow=block;blockSpacing=1;whiteSpace=wrap;fontSize=13.3;fontColor=#333333;align=center;spacing=3.8;strokeColor=#333333;strokeOpacity=100;fillOpacity=100;rounded=1;absoluteArcSize=1;arcSize=7.5;fillColor=#3278ca;strokeWidth=0.8;" parent="1" vertex="1">
          <mxGeometry x="440" y="790" width="140" height="120" as="geometry" />
        </mxCell>
        <mxCell id="n-bltV9YuMnR6yL7ZxgR-139" style="edgeStyle=orthogonalEdgeStyle;rounded=0;orthogonalLoop=1;jettySize=auto;html=1;exitX=0;exitY=0.5;exitDx=0;exitDy=0;entryX=0;entryY=0.5;entryDx=0;entryDy=0;startArrow=none;startFill=0;endArrow=classic;endFill=1;" parent="1" source="n-bltV9YuMnR6yL7ZxgR-133" target="n-bltV9YuMnR6yL7ZxgR-131" edge="1">
          <mxGeometry relative="1" as="geometry">
            <Array as="points">
              <mxPoint x="390" y="500" />
              <mxPoint x="390" y="710" />
            </Array>
          </mxGeometry>
        </mxCell>
        <mxCell id="n-bltV9YuMnR6yL7ZxgR-145" style="edgeStyle=orthogonalEdgeStyle;rounded=0;orthogonalLoop=1;jettySize=auto;html=1;entryX=1;entryY=0.5;entryDx=0;entryDy=0;entryPerimeter=0;startArrow=none;startFill=0;endArrow=classic;endFill=1;" parent="1" source="n-bltV9YuMnR6yL7ZxgR-133" target="n-bltV9YuMnR6yL7ZxgR-135" edge="1">
          <mxGeometry relative="1" as="geometry">
            <Array as="points">
              <mxPoint x="600" y="500" />
              <mxPoint x="600" y="55" />
            </Array>
          </mxGeometry>
        </mxCell>
        <mxCell id="n-bltV9YuMnR6yL7ZxgR-133" value="У пользователя есть роль соответствующая данному блоку?" style="html=1;overflow=block;blockSpacing=1;shape=mxgraph.bpmn.shape;perimeter=rhombusPerimeter;background=gateway;verticalLabelPosition=bottom;verticalAlign=top;outline=none;symbol=exclusiveGw;strokeColor=#333333;strokeOpacity=100;fillOpacity=100;rounded=1;absoluteArcSize=1;arcSize=12;fillColor=#ffffff;strokeWidth=0.8;whiteSpace=wrap;fontSize=13.3;fontColor=#333333;align=center;spacing=0;" parent="1" vertex="1">
          <mxGeometry x="470" y="460" width="80" height="80" as="geometry" />
        </mxCell>
        <mxCell id="n-bltV9YuMnR6yL7ZxgR-149" style="edgeStyle=orthogonalEdgeStyle;rounded=0;orthogonalLoop=1;jettySize=auto;html=1;startArrow=none;startFill=0;endArrow=classic;endFill=1;" parent="1" source="n-bltV9YuMnR6yL7ZxgR-134" target="n-bltV9YuMnR6yL7ZxgR-133" edge="1">
          <mxGeometry relative="1" as="geometry" />
        </mxCell>
        <mxCell id="n-bltV9YuMnR6yL7ZxgR-134" value="Проверки пользовательской роли" style="html=1;overflow=block;blockSpacing=1;whiteSpace=wrap;fontSize=13.3;fontColor=#333333;align=center;spacing=3.8;strokeColor=#333333;strokeOpacity=100;fillOpacity=100;rounded=1;absoluteArcSize=1;arcSize=7.5;fillColor=#3278ca;strokeWidth=0.8;" parent="1" vertex="1">
          <mxGeometry x="450" y="370" width="120" height="70" as="geometry" />
        </mxCell>
        <mxCell id="n-bltV9YuMnR6yL7ZxgR-137" style="edgeStyle=orthogonalEdgeStyle;rounded=0;orthogonalLoop=1;jettySize=auto;html=1;startArrow=none;startFill=0;endArrow=classic;endFill=1;" parent="1" source="n-bltV9YuMnR6yL7ZxgR-135" target="n-bltV9YuMnR6yL7ZxgR-121" edge="1">
          <mxGeometry relative="1" as="geometry" />
        </mxCell>
        <mxCell id="n-bltV9YuMnR6yL7ZxgR-135" value="" style="points=[[0.25,0.25,0],[0.5,0,0],[0.75,0.25,0],[1,0.5,0],[0.75,0.75,0],[0.5,1,0],[0.25,0.75,0],[0,0.5,0]];shape=mxgraph.bpmn.gateway2;html=1;verticalLabelPosition=bottom;labelBackgroundColor=#ffffff;verticalAlign=top;align=center;perimeter=rhombusPerimeter;outlineConnect=0;outline=none;symbol=none;" parent="1" vertex="1">
          <mxGeometry x="335" y="30" width="50" height="50" as="geometry" />
        </mxCell>
        <mxCell id="n-bltV9YuMnR6yL7ZxgR-146" value="Нет" style="text;html=1;resizable=0;autosize=1;align=center;verticalAlign=middle;points=[];fillColor=none;strokeColor=none;rounded=0;" parent="1" vertex="1">
          <mxGeometry x="540" y="500" width="40" height="20" as="geometry" />
        </mxCell>
        <mxCell id="n-bltV9YuMnR6yL7ZxgR-147" value="Да" style="text;html=1;resizable=0;autosize=1;align=center;verticalAlign=middle;points=[];fillColor=none;strokeColor=none;rounded=0;" parent="1" vertex="1">
          <mxGeometry x="450" y="500" width="30" height="20" as="geometry" />
        </mxCell>
        <mxCell id="n-bltV9YuMnR6yL7ZxgR-153" style="edgeStyle=orthogonalEdgeStyle;rounded=0;orthogonalLoop=1;jettySize=auto;html=1;entryX=0;entryY=0.5;entryDx=0;entryDy=0;startArrow=none;startFill=0;endArrow=classic;endFill=1;" parent="1" source="n-bltV9YuMnR6yL7ZxgR-151" target="n-bltV9YuMnR6yL7ZxgR-12" edge="1">
          <mxGeometry relative="1" as="geometry">
            <Array as="points">
              <mxPoint x="620" y="970" />
              <mxPoint x="620" y="155" />
            </Array>
          </mxGeometry>
        </mxCell>
        <mxCell id="n-bltV9YuMnR6yL7ZxgR-151" value="&lt;span style=&quot;font-size: 15px ; font-style: italic&quot;&gt;Отображение кнопки &quot;Создать приказ&quot;&lt;/span&gt;" style="html=1;overflow=block;blockSpacing=1;whiteSpace=wrap;fontSize=13.3;fontColor=#333333;align=center;spacing=3.8;strokeColor=#333333;strokeOpacity=100;fillOpacity=100;rounded=1;absoluteArcSize=1;arcSize=7.5;fillColor=#3278ca;strokeWidth=0.8;" parent="1" vertex="1">
          <mxGeometry x="450" y="930" width="120" height="80" as="geometry" />
        </mxCell>
        <mxCell id="n-bltV9YuMnR6yL7ZxgR-157" style="edgeStyle=orthogonalEdgeStyle;rounded=0;orthogonalLoop=1;jettySize=auto;html=1;startArrow=none;startFill=0;endArrow=classic;endFill=1;" parent="1" source="n-bltV9YuMnR6yL7ZxgR-154" target="n-bltV9YuMnR6yL7ZxgR-156" edge="1">
          <mxGeometry relative="1" as="geometry" />
        </mxCell>
        <mxCell id="n-bltV9YuMnR6yL7ZxgR-154" value="&lt;span style=&quot;font-size: 15px ; font-style: italic&quot;&gt;Формирование модального окна для создания &quot;приказа на актуализацию&quot;&lt;/span&gt;" style="html=1;overflow=block;blockSpacing=1;whiteSpace=wrap;fontSize=13.3;fontColor=#333333;align=center;spacing=3.8;strokeColor=#333333;strokeOpacity=100;fillOpacity=100;rounded=1;absoluteArcSize=1;arcSize=7.5;fillColor=#3278ca;strokeWidth=0.8;" parent="1" vertex="1">
          <mxGeometry x="650" y="370" width="140" height="120" as="geometry" />
        </mxCell>
        <mxCell id="n-bltV9YuMnR6yL7ZxgR-159" style="edgeStyle=orthogonalEdgeStyle;rounded=0;orthogonalLoop=1;jettySize=auto;html=1;startArrow=none;startFill=0;endArrow=classic;endFill=1;" parent="1" source="n-bltV9YuMnR6yL7ZxgR-156" target="n-bltV9YuMnR6yL7ZxgR-158" edge="1">
          <mxGeometry relative="1" as="geometry" />
        </mxCell>
        <mxCell id="n-bltV9YuMnR6yL7ZxgR-156" value="&lt;span style=&quot;font-size: 15px ; font-style: italic&quot;&gt;Заполнение поля СБЕ значением из цифрового профиля пользователя&amp;nbsp;&lt;/span&gt;" style="html=1;overflow=block;blockSpacing=1;whiteSpace=wrap;fontSize=13.3;fontColor=#333333;align=center;spacing=3.8;strokeColor=#333333;strokeOpacity=100;fillOpacity=100;rounded=1;absoluteArcSize=1;arcSize=7.5;fillColor=#3278ca;strokeWidth=0.8;" parent="1" vertex="1">
          <mxGeometry x="650" y="510" width="140" height="100" as="geometry" />
        </mxCell>
        <mxCell id="n-bltV9YuMnR6yL7ZxgR-161" style="edgeStyle=orthogonalEdgeStyle;rounded=0;orthogonalLoop=1;jettySize=auto;html=1;entryX=0.5;entryY=0;entryDx=0;entryDy=0;startArrow=none;startFill=0;endArrow=classic;endFill=1;" parent="1" source="n-bltV9YuMnR6yL7ZxgR-158" target="n-bltV9YuMnR6yL7ZxgR-160" edge="1">
          <mxGeometry relative="1" as="geometry" />
        </mxCell>
        <mxCell id="n-bltV9YuMnR6yL7ZxgR-158" value="&lt;span style=&quot;font-size: 15px ; font-style: italic&quot;&gt;Заполнение поля &quot;Год&quot; значением прошлого года&lt;/span&gt;" style="html=1;overflow=block;blockSpacing=1;whiteSpace=wrap;fontSize=13.3;fontColor=#333333;align=center;spacing=3.8;strokeColor=#333333;strokeOpacity=100;fillOpacity=100;rounded=1;absoluteArcSize=1;arcSize=7.5;fillColor=#3278ca;strokeWidth=0.8;" parent="1" vertex="1">
          <mxGeometry x="650" y="630" width="140" height="60" as="geometry" />
        </mxCell>
        <mxCell id="n-bltV9YuMnR6yL7ZxgR-163" style="edgeStyle=orthogonalEdgeStyle;rounded=0;orthogonalLoop=1;jettySize=auto;html=1;entryX=0;entryY=0.5;entryDx=0;entryDy=0;entryPerimeter=0;startArrow=none;startFill=0;endArrow=classic;endFill=1;" parent="1" source="n-bltV9YuMnR6yL7ZxgR-160" target="n-bltV9YuMnR6yL7ZxgR-96" edge="1">
          <mxGeometry relative="1" as="geometry" />
        </mxCell>
        <mxCell id="n-bltV9YuMnR6yL7ZxgR-160" value="&lt;span style=&quot;font-size: 15px ; font-style: italic&quot;&gt;Блокировка полей &quot;Год&quot; и &quot;СБЕ&quot;.&lt;/span&gt;" style="html=1;overflow=block;blockSpacing=1;whiteSpace=wrap;fontSize=13.3;fontColor=#333333;align=center;spacing=3.8;strokeColor=#333333;strokeOpacity=100;fillOpacity=100;rounded=1;absoluteArcSize=1;arcSize=7.5;fillColor=#3278ca;strokeWidth=0.8;" parent="1" vertex="1">
          <mxGeometry x="650" y="710" width="140" height="50" as="geometry" />
        </mxCell>
        <mxCell id="n-bltV9YuMnR6yL7ZxgR-171" style="edgeStyle=orthogonalEdgeStyle;rounded=0;orthogonalLoop=1;jettySize=auto;html=1;entryX=0.5;entryY=0;entryDx=0;entryDy=0;startArrow=none;startFill=0;endArrow=classic;endFill=1;" parent="1" source="n-bltV9YuMnR6yL7ZxgR-164" target="n-bltV9YuMnR6yL7ZxgR-166" edge="1">
          <mxGeometry relative="1" as="geometry">
            <Array as="points">
              <mxPoint x="970" y="440" />
              <mxPoint x="970" y="440" />
            </Array>
          </mxGeometry>
        </mxCell>
        <mxCell id="n-bltV9YuMnR6yL7ZxgR-164" value="Проверка значения поля" style="html=1;overflow=block;blockSpacing=1;whiteSpace=wrap;fontSize=14.9;fontColor=#333333;fontStyle=2;spacing=3.8;strokeColor=#333333;strokeOpacity=100;fillOpacity=100;rounded=1;absoluteArcSize=1;arcSize=7.5;fillColor=#3278ca;strokeWidth=0.8;" parent="1" vertex="1">
          <mxGeometry x="930" y="370" width="90" height="60" as="geometry" />
        </mxCell>
        <mxCell id="n-bltV9YuMnR6yL7ZxgR-174" style="edgeStyle=orthogonalEdgeStyle;rounded=0;orthogonalLoop=1;jettySize=auto;html=1;startArrow=none;startFill=0;endArrow=classic;endFill=1;entryX=0;entryY=0.5;entryDx=0;entryDy=0;exitX=0;exitY=0.5;exitDx=0;exitDy=0;" parent="1" source="n-bltV9YuMnR6yL7ZxgR-166" target="n-bltV9YuMnR6yL7ZxgR-172" edge="1">
          <mxGeometry relative="1" as="geometry">
            <mxPoint x="850" y="650" as="targetPoint" />
            <Array as="points">
              <mxPoint x="900" y="490" />
              <mxPoint x="900" y="651" />
            </Array>
          </mxGeometry>
        </mxCell>
        <mxCell id="n-bltV9YuMnR6yL7ZxgR-190" style="edgeStyle=orthogonalEdgeStyle;rounded=0;orthogonalLoop=1;jettySize=auto;html=1;entryX=0;entryY=0.5;entryDx=0;entryDy=0;entryPerimeter=0;startArrow=none;startFill=0;endArrow=classic;endFill=1;" parent="1" source="n-bltV9YuMnR6yL7ZxgR-166" target="n-bltV9YuMnR6yL7ZxgR-188" edge="1">
          <mxGeometry relative="1" as="geometry" />
        </mxCell>
        <mxCell id="n-bltV9YuMnR6yL7ZxgR-166" value="Год указанной даты&amp;nbsp;&amp;gt;1 значения поля &quot;Год&quot;?" style="html=1;overflow=block;blockSpacing=1;shape=mxgraph.bpmn.shape;perimeter=rhombusPerimeter;background=gateway;verticalLabelPosition=bottom;verticalAlign=top;outline=none;symbol=exclusiveGw;strokeColor=#333333;strokeOpacity=100;fillOpacity=100;rounded=1;absoluteArcSize=1;arcSize=12;fillColor=#ffffff;strokeWidth=0.8;whiteSpace=wrap;fontSize=13.3;fontColor=#333333;align=center;spacing=0;" parent="1" vertex="1">
          <mxGeometry x="930" y="450" width="80" height="80" as="geometry" />
        </mxCell>
        <mxCell id="n-bltV9YuMnR6yL7ZxgR-167" value="Нет" style="text;html=1;resizable=0;autosize=1;align=center;verticalAlign=middle;points=[];fillColor=none;strokeColor=none;rounded=0;" parent="1" vertex="1">
          <mxGeometry x="900" y="490" width="40" height="20" as="geometry" />
        </mxCell>
        <mxCell id="n-bltV9YuMnR6yL7ZxgR-168" value="Да" style="text;html=1;resizable=0;autosize=1;align=center;verticalAlign=middle;points=[];fillColor=none;strokeColor=none;rounded=0;" parent="1" vertex="1">
          <mxGeometry x="1000" y="490" width="30" height="20" as="geometry" />
        </mxCell>
        <mxCell id="n-bltV9YuMnR6yL7ZxgR-175" style="edgeStyle=orthogonalEdgeStyle;rounded=0;orthogonalLoop=1;jettySize=auto;html=1;entryX=0.5;entryY=0;entryDx=0;entryDy=0;startArrow=none;startFill=0;endArrow=classic;endFill=1;" parent="1" source="n-bltV9YuMnR6yL7ZxgR-172" target="n-bltV9YuMnR6yL7ZxgR-173" edge="1">
          <mxGeometry relative="1" as="geometry" />
        </mxCell>
        <mxCell id="n-bltV9YuMnR6yL7ZxgR-172" value="Обводка поля красным цветом" style="html=1;overflow=block;blockSpacing=1;whiteSpace=wrap;fontSize=14.9;fontColor=#333333;fontStyle=2;spacing=3.8;strokeColor=#333333;strokeOpacity=100;fillOpacity=100;rounded=1;absoluteArcSize=1;arcSize=7.5;fillColor=#3278ca;strokeWidth=0.8;" parent="1" vertex="1">
          <mxGeometry x="923.75" y="614" width="102.5" height="74" as="geometry" />
        </mxCell>
        <mxCell id="n-bltV9YuMnR6yL7ZxgR-177" style="edgeStyle=orthogonalEdgeStyle;rounded=0;orthogonalLoop=1;jettySize=auto;html=1;startArrow=none;startFill=0;endArrow=classic;endFill=1;" parent="1" source="n-bltV9YuMnR6yL7ZxgR-173" target="n-bltV9YuMnR6yL7ZxgR-96" edge="1">
          <mxGeometry relative="1" as="geometry" />
        </mxCell>
        <mxCell id="n-bltV9YuMnR6yL7ZxgR-173" value="Объявление об ошибке заполнения" style="html=1;overflow=block;blockSpacing=1;whiteSpace=wrap;fontSize=14.9;fontColor=#333333;fontStyle=2;spacing=3.8;strokeColor=#333333;strokeOpacity=100;fillOpacity=100;rounded=1;absoluteArcSize=1;arcSize=7.5;fillColor=#3278ca;strokeWidth=0.8;" parent="1" vertex="1">
          <mxGeometry x="925" y="710" width="100" height="74" as="geometry" />
        </mxCell>
        <mxCell id="n-bltV9YuMnR6yL7ZxgR-179" style="edgeStyle=orthogonalEdgeStyle;rounded=0;orthogonalLoop=1;jettySize=auto;html=1;entryX=0.5;entryY=0;entryDx=0;entryDy=0;startArrow=none;startFill=0;endArrow=classic;endFill=1;" parent="1" source="n-bltV9YuMnR6yL7ZxgR-180" target="n-bltV9YuMnR6yL7ZxgR-182" edge="1">
          <mxGeometry relative="1" as="geometry">
            <Array as="points">
              <mxPoint x="1166.25" y="440" />
              <mxPoint x="1166.25" y="440" />
            </Array>
          </mxGeometry>
        </mxCell>
        <mxCell id="n-bltV9YuMnR6yL7ZxgR-180" value="Проверка значения поля" style="html=1;overflow=block;blockSpacing=1;whiteSpace=wrap;fontSize=14.9;fontColor=#333333;fontStyle=2;spacing=3.8;strokeColor=#333333;strokeOpacity=100;fillOpacity=100;rounded=1;absoluteArcSize=1;arcSize=7.5;fillColor=#3278ca;strokeWidth=0.8;" parent="1" vertex="1">
          <mxGeometry x="1126.25" y="370" width="90" height="60" as="geometry" />
        </mxCell>
        <mxCell id="n-bltV9YuMnR6yL7ZxgR-181" style="edgeStyle=orthogonalEdgeStyle;rounded=0;orthogonalLoop=1;jettySize=auto;html=1;startArrow=none;startFill=0;endArrow=classic;endFill=1;entryX=0;entryY=0.5;entryDx=0;entryDy=0;exitX=0;exitY=0.5;exitDx=0;exitDy=0;" parent="1" source="n-bltV9YuMnR6yL7ZxgR-182" target="n-bltV9YuMnR6yL7ZxgR-186" edge="1">
          <mxGeometry relative="1" as="geometry">
            <mxPoint x="1030" y="650" as="targetPoint" />
            <Array as="points">
              <mxPoint x="1100" y="490" />
              <mxPoint x="1100" y="651" />
            </Array>
          </mxGeometry>
        </mxCell>
        <mxCell id="n-bltV9YuMnR6yL7ZxgR-218" style="edgeStyle=entityRelationEdgeStyle;rounded=0;orthogonalLoop=1;jettySize=auto;html=1;entryX=0;entryY=0.5;entryDx=0;entryDy=0;entryPerimeter=0;startArrow=none;startFill=0;endArrow=classic;endFill=1;" parent="1" source="n-bltV9YuMnR6yL7ZxgR-182" target="n-bltV9YuMnR6yL7ZxgR-194" edge="1">
          <mxGeometry relative="1" as="geometry" />
        </mxCell>
        <mxCell id="n-bltV9YuMnR6yL7ZxgR-182" value="Дата тек.поля &amp;gt; даты пред.поля?" style="html=1;overflow=block;blockSpacing=1;shape=mxgraph.bpmn.shape;perimeter=rhombusPerimeter;background=gateway;verticalLabelPosition=bottom;verticalAlign=top;outline=none;symbol=exclusiveGw;strokeColor=#333333;strokeOpacity=100;fillOpacity=100;rounded=1;absoluteArcSize=1;arcSize=12;fillColor=#ffffff;strokeWidth=0.8;whiteSpace=wrap;fontSize=13.3;fontColor=#333333;align=center;spacing=0;" parent="1" vertex="1">
          <mxGeometry x="1126.25" y="450" width="80" height="80" as="geometry" />
        </mxCell>
        <mxCell id="n-bltV9YuMnR6yL7ZxgR-183" value="Нет" style="text;html=1;resizable=0;autosize=1;align=center;verticalAlign=middle;points=[];fillColor=none;strokeColor=none;rounded=0;" parent="1" vertex="1">
          <mxGeometry x="1100" y="490" width="40" height="20" as="geometry" />
        </mxCell>
        <mxCell id="n-bltV9YuMnR6yL7ZxgR-184" value="Да" style="text;html=1;resizable=0;autosize=1;align=center;verticalAlign=middle;points=[];fillColor=none;strokeColor=none;rounded=0;" parent="1" vertex="1">
          <mxGeometry x="1192.5" y="490" width="30" height="20" as="geometry" />
        </mxCell>
        <mxCell id="n-bltV9YuMnR6yL7ZxgR-185" style="edgeStyle=orthogonalEdgeStyle;rounded=0;orthogonalLoop=1;jettySize=auto;html=1;entryX=0.5;entryY=0;entryDx=0;entryDy=0;startArrow=none;startFill=0;endArrow=classic;endFill=1;" parent="1" source="n-bltV9YuMnR6yL7ZxgR-186" target="n-bltV9YuMnR6yL7ZxgR-187" edge="1">
          <mxGeometry relative="1" as="geometry" />
        </mxCell>
        <mxCell id="n-bltV9YuMnR6yL7ZxgR-186" value="Обводка поля красным цветом" style="html=1;overflow=block;blockSpacing=1;whiteSpace=wrap;fontSize=14.9;fontColor=#333333;fontStyle=2;spacing=3.8;strokeColor=#333333;strokeOpacity=100;fillOpacity=100;rounded=1;absoluteArcSize=1;arcSize=7.5;fillColor=#3278ca;strokeWidth=0.8;" parent="1" vertex="1">
          <mxGeometry x="1120" y="614" width="102.5" height="74" as="geometry" />
        </mxCell>
        <mxCell id="n-bltV9YuMnR6yL7ZxgR-192" style="edgeStyle=orthogonalEdgeStyle;rounded=0;orthogonalLoop=1;jettySize=auto;html=1;entryX=0.5;entryY=1;entryDx=0;entryDy=0;entryPerimeter=0;startArrow=none;startFill=0;endArrow=classic;endFill=1;" parent="1" source="n-bltV9YuMnR6yL7ZxgR-187" target="n-bltV9YuMnR6yL7ZxgR-188" edge="1">
          <mxGeometry relative="1" as="geometry" />
        </mxCell>
        <mxCell id="n-bltV9YuMnR6yL7ZxgR-187" value="Объявление об ошибке заполнения" style="html=1;overflow=block;blockSpacing=1;whiteSpace=wrap;fontSize=14.9;fontColor=#333333;fontStyle=2;spacing=3.8;strokeColor=#333333;strokeOpacity=100;fillOpacity=100;rounded=1;absoluteArcSize=1;arcSize=7.5;fillColor=#3278ca;strokeWidth=0.8;" parent="1" vertex="1">
          <mxGeometry x="1121.25" y="710" width="100" height="74" as="geometry" />
        </mxCell>
        <mxCell id="n-bltV9YuMnR6yL7ZxgR-191" style="edgeStyle=orthogonalEdgeStyle;rounded=0;orthogonalLoop=1;jettySize=auto;html=1;entryX=0;entryY=0.5;entryDx=0;entryDy=0;startArrow=none;startFill=0;endArrow=classic;endFill=1;exitX=0.5;exitY=0;exitDx=0;exitDy=0;exitPerimeter=0;" parent="1" source="n-bltV9YuMnR6yL7ZxgR-188" target="n-bltV9YuMnR6yL7ZxgR-21" edge="1">
          <mxGeometry relative="1" as="geometry">
            <Array as="points">
              <mxPoint x="1065" y="154" />
            </Array>
          </mxGeometry>
        </mxCell>
        <mxCell id="n-bltV9YuMnR6yL7ZxgR-188" value="" style="points=[[0.25,0.25,0],[0.5,0,0],[0.75,0.25,0],[1,0.5,0],[0.75,0.75,0],[0.5,1,0],[0.25,0.75,0],[0,0.5,0]];shape=mxgraph.bpmn.gateway2;html=1;verticalLabelPosition=bottom;labelBackgroundColor=#ffffff;verticalAlign=top;align=center;perimeter=rhombusPerimeter;outlineConnect=0;outline=none;symbol=none;" parent="1" vertex="1">
          <mxGeometry x="1040" y="465" width="50" height="50" as="geometry" />
        </mxCell>
        <mxCell id="n-bltV9YuMnR6yL7ZxgR-221" style="rounded=0;orthogonalLoop=1;jettySize=auto;html=1;entryX=0;entryY=0.5;entryDx=0;entryDy=0;startArrow=none;startFill=0;endArrow=classic;endFill=1;edgeStyle=orthogonalEdgeStyle;" parent="1" source="n-bltV9YuMnR6yL7ZxgR-194" target="n-bltV9YuMnR6yL7ZxgR-219" edge="1">
          <mxGeometry relative="1" as="geometry">
            <Array as="points">
              <mxPoint x="1255" y="154" />
            </Array>
          </mxGeometry>
        </mxCell>
        <mxCell id="n-bltV9YuMnR6yL7ZxgR-194" value="" style="points=[[0.25,0.25,0],[0.5,0,0],[0.75,0.25,0],[1,0.5,0],[0.75,0.75,0],[0.5,1,0],[0.25,0.75,0],[0,0.5,0]];shape=mxgraph.bpmn.gateway2;html=1;verticalLabelPosition=bottom;labelBackgroundColor=#ffffff;verticalAlign=top;align=center;perimeter=rhombusPerimeter;outlineConnect=0;outline=none;symbol=none;" parent="1" vertex="1">
          <mxGeometry x="1230" y="465" width="50" height="50" as="geometry" />
        </mxCell>
        <mxCell id="n-bltV9YuMnR6yL7ZxgR-195" style="edgeStyle=orthogonalEdgeStyle;rounded=0;orthogonalLoop=1;jettySize=auto;html=1;entryX=0.5;entryY=0;entryDx=0;entryDy=0;startArrow=none;startFill=0;endArrow=classic;endFill=1;" parent="1" source="n-bltV9YuMnR6yL7ZxgR-196" target="n-bltV9YuMnR6yL7ZxgR-199" edge="1">
          <mxGeometry relative="1" as="geometry">
            <Array as="points">
              <mxPoint x="1360" y="440" />
              <mxPoint x="1360" y="440" />
            </Array>
          </mxGeometry>
        </mxCell>
        <mxCell id="n-bltV9YuMnR6yL7ZxgR-196" value="Проверка значения поля" style="html=1;overflow=block;blockSpacing=1;whiteSpace=wrap;fontSize=14.9;fontColor=#333333;fontStyle=2;spacing=3.8;strokeColor=#333333;strokeOpacity=100;fillOpacity=100;rounded=1;absoluteArcSize=1;arcSize=7.5;fillColor=#3278ca;strokeWidth=0.8;" parent="1" vertex="1">
          <mxGeometry x="1320" y="370" width="90" height="60" as="geometry" />
        </mxCell>
        <mxCell id="n-bltV9YuMnR6yL7ZxgR-197" style="edgeStyle=orthogonalEdgeStyle;rounded=0;orthogonalLoop=1;jettySize=auto;html=1;startArrow=none;startFill=0;endArrow=classic;endFill=1;entryX=0;entryY=0.5;entryDx=0;entryDy=0;exitX=0;exitY=0.5;exitDx=0;exitDy=0;" parent="1" source="n-bltV9YuMnR6yL7ZxgR-199" target="n-bltV9YuMnR6yL7ZxgR-203" edge="1">
          <mxGeometry relative="1" as="geometry">
            <mxPoint x="1240" y="650" as="targetPoint" />
            <Array as="points">
              <mxPoint x="1290" y="490" />
              <mxPoint x="1290" y="651" />
            </Array>
          </mxGeometry>
        </mxCell>
        <mxCell id="n-bltV9YuMnR6yL7ZxgR-198" style="edgeStyle=orthogonalEdgeStyle;rounded=0;orthogonalLoop=1;jettySize=auto;html=1;entryX=0;entryY=0.5;entryDx=0;entryDy=0;entryPerimeter=0;startArrow=none;startFill=0;endArrow=classic;endFill=1;" parent="1" source="n-bltV9YuMnR6yL7ZxgR-199" target="n-bltV9YuMnR6yL7ZxgR-216" edge="1">
          <mxGeometry relative="1" as="geometry" />
        </mxCell>
        <mxCell id="n-bltV9YuMnR6yL7ZxgR-199" value="Дата тек.поля &amp;gt; даты пред.поля?" style="html=1;overflow=block;blockSpacing=1;shape=mxgraph.bpmn.shape;perimeter=rhombusPerimeter;background=gateway;verticalLabelPosition=bottom;verticalAlign=top;outline=none;symbol=exclusiveGw;strokeColor=#333333;strokeOpacity=100;fillOpacity=100;rounded=1;absoluteArcSize=1;arcSize=12;fillColor=#ffffff;strokeWidth=0.8;whiteSpace=wrap;fontSize=13.3;fontColor=#333333;align=center;spacing=0;" parent="1" vertex="1">
          <mxGeometry x="1320" y="450" width="80" height="80" as="geometry" />
        </mxCell>
        <mxCell id="n-bltV9YuMnR6yL7ZxgR-200" value="Нет" style="text;html=1;resizable=0;autosize=1;align=center;verticalAlign=middle;points=[];fillColor=none;strokeColor=none;rounded=0;" parent="1" vertex="1">
          <mxGeometry x="1290" y="490" width="40" height="20" as="geometry" />
        </mxCell>
        <mxCell id="n-bltV9YuMnR6yL7ZxgR-201" value="Да" style="text;html=1;resizable=0;autosize=1;align=center;verticalAlign=middle;points=[];fillColor=none;strokeColor=none;rounded=0;" parent="1" vertex="1">
          <mxGeometry x="1390" y="490" width="30" height="20" as="geometry" />
        </mxCell>
        <mxCell id="n-bltV9YuMnR6yL7ZxgR-202" style="edgeStyle=orthogonalEdgeStyle;rounded=0;orthogonalLoop=1;jettySize=auto;html=1;entryX=0.5;entryY=0;entryDx=0;entryDy=0;startArrow=none;startFill=0;endArrow=classic;endFill=1;" parent="1" source="n-bltV9YuMnR6yL7ZxgR-203" target="n-bltV9YuMnR6yL7ZxgR-205" edge="1">
          <mxGeometry relative="1" as="geometry" />
        </mxCell>
        <mxCell id="n-bltV9YuMnR6yL7ZxgR-203" value="Обводка поля красным цветом" style="html=1;overflow=block;blockSpacing=1;whiteSpace=wrap;fontSize=14.9;fontColor=#333333;fontStyle=2;spacing=3.8;strokeColor=#333333;strokeOpacity=100;fillOpacity=100;rounded=1;absoluteArcSize=1;arcSize=7.5;fillColor=#3278ca;strokeWidth=0.8;" parent="1" vertex="1">
          <mxGeometry x="1313.75" y="614" width="102.5" height="74" as="geometry" />
        </mxCell>
        <mxCell id="n-bltV9YuMnR6yL7ZxgR-204" style="edgeStyle=orthogonalEdgeStyle;rounded=0;orthogonalLoop=1;jettySize=auto;html=1;startArrow=none;startFill=0;endArrow=classic;endFill=1;" parent="1" source="n-bltV9YuMnR6yL7ZxgR-205" target="n-bltV9YuMnR6yL7ZxgR-194" edge="1">
          <mxGeometry relative="1" as="geometry" />
        </mxCell>
        <mxCell id="n-bltV9YuMnR6yL7ZxgR-205" value="Объявление об ошибке заполнения" style="html=1;overflow=block;blockSpacing=1;whiteSpace=wrap;fontSize=14.9;fontColor=#333333;fontStyle=2;spacing=3.8;strokeColor=#333333;strokeOpacity=100;fillOpacity=100;rounded=1;absoluteArcSize=1;arcSize=7.5;fillColor=#3278ca;strokeWidth=0.8;" parent="1" vertex="1">
          <mxGeometry x="1315" y="710" width="100" height="74" as="geometry" />
        </mxCell>
        <mxCell id="n-bltV9YuMnR6yL7ZxgR-206" style="edgeStyle=orthogonalEdgeStyle;rounded=0;orthogonalLoop=1;jettySize=auto;html=1;entryX=0.5;entryY=0;entryDx=0;entryDy=0;startArrow=none;startFill=0;endArrow=classic;endFill=1;" parent="1" source="n-bltV9YuMnR6yL7ZxgR-207" target="n-bltV9YuMnR6yL7ZxgR-209" edge="1">
          <mxGeometry relative="1" as="geometry">
            <Array as="points">
              <mxPoint x="1556.25" y="440" />
              <mxPoint x="1556.25" y="440" />
            </Array>
          </mxGeometry>
        </mxCell>
        <mxCell id="n-bltV9YuMnR6yL7ZxgR-207" value="Проверка значения поля" style="html=1;overflow=block;blockSpacing=1;whiteSpace=wrap;fontSize=14.9;fontColor=#333333;fontStyle=2;spacing=3.8;strokeColor=#333333;strokeOpacity=100;fillOpacity=100;rounded=1;absoluteArcSize=1;arcSize=7.5;fillColor=#3278ca;strokeWidth=0.8;" parent="1" vertex="1">
          <mxGeometry x="1516.25" y="370" width="90" height="60" as="geometry" />
        </mxCell>
        <mxCell id="n-bltV9YuMnR6yL7ZxgR-208" style="edgeStyle=orthogonalEdgeStyle;rounded=0;orthogonalLoop=1;jettySize=auto;html=1;startArrow=none;startFill=0;endArrow=classic;endFill=1;entryX=0;entryY=0.5;entryDx=0;entryDy=0;exitX=0;exitY=0.5;exitDx=0;exitDy=0;" parent="1" source="n-bltV9YuMnR6yL7ZxgR-209" target="n-bltV9YuMnR6yL7ZxgR-213" edge="1">
          <mxGeometry relative="1" as="geometry">
            <mxPoint x="1420" y="650" as="targetPoint" />
            <Array as="points">
              <mxPoint x="1490" y="490" />
              <mxPoint x="1490" y="651" />
            </Array>
          </mxGeometry>
        </mxCell>
        <mxCell id="n-bltV9YuMnR6yL7ZxgR-240" style="edgeStyle=orthogonalEdgeStyle;rounded=0;orthogonalLoop=1;jettySize=auto;html=1;entryX=0;entryY=0.5;entryDx=0;entryDy=0;entryPerimeter=0;startArrow=none;startFill=0;endArrow=classic;endFill=1;" parent="1" source="n-bltV9YuMnR6yL7ZxgR-209" target="n-bltV9YuMnR6yL7ZxgR-239" edge="1">
          <mxGeometry relative="1" as="geometry" />
        </mxCell>
        <mxCell id="n-bltV9YuMnR6yL7ZxgR-209" value="Дата тек.поля &amp;gt; даты пред.поля?" style="html=1;overflow=block;blockSpacing=1;shape=mxgraph.bpmn.shape;perimeter=rhombusPerimeter;background=gateway;verticalLabelPosition=bottom;verticalAlign=top;outline=none;symbol=exclusiveGw;strokeColor=#333333;strokeOpacity=100;fillOpacity=100;rounded=1;absoluteArcSize=1;arcSize=12;fillColor=#ffffff;strokeWidth=0.8;whiteSpace=wrap;fontSize=13.3;fontColor=#333333;align=center;spacing=0;" parent="1" vertex="1">
          <mxGeometry x="1516.25" y="450" width="80" height="80" as="geometry" />
        </mxCell>
        <mxCell id="n-bltV9YuMnR6yL7ZxgR-210" value="Нет" style="text;html=1;resizable=0;autosize=1;align=center;verticalAlign=middle;points=[];fillColor=none;strokeColor=none;rounded=0;" parent="1" vertex="1">
          <mxGeometry x="1490" y="490" width="40" height="20" as="geometry" />
        </mxCell>
        <mxCell id="n-bltV9YuMnR6yL7ZxgR-211" value="Да" style="text;html=1;resizable=0;autosize=1;align=center;verticalAlign=middle;points=[];fillColor=none;strokeColor=none;rounded=0;" parent="1" vertex="1">
          <mxGeometry x="1582.5" y="490" width="30" height="20" as="geometry" />
        </mxCell>
        <mxCell id="n-bltV9YuMnR6yL7ZxgR-212" style="edgeStyle=orthogonalEdgeStyle;rounded=0;orthogonalLoop=1;jettySize=auto;html=1;entryX=0.5;entryY=0;entryDx=0;entryDy=0;startArrow=none;startFill=0;endArrow=classic;endFill=1;" parent="1" source="n-bltV9YuMnR6yL7ZxgR-213" target="n-bltV9YuMnR6yL7ZxgR-215" edge="1">
          <mxGeometry relative="1" as="geometry" />
        </mxCell>
        <mxCell id="n-bltV9YuMnR6yL7ZxgR-213" value="Обводка поля красным цветом" style="html=1;overflow=block;blockSpacing=1;whiteSpace=wrap;fontSize=14.9;fontColor=#333333;fontStyle=2;spacing=3.8;strokeColor=#333333;strokeOpacity=100;fillOpacity=100;rounded=1;absoluteArcSize=1;arcSize=7.5;fillColor=#3278ca;strokeWidth=0.8;" parent="1" vertex="1">
          <mxGeometry x="1510" y="614" width="102.5" height="74" as="geometry" />
        </mxCell>
        <mxCell id="n-bltV9YuMnR6yL7ZxgR-214" style="edgeStyle=orthogonalEdgeStyle;rounded=0;orthogonalLoop=1;jettySize=auto;html=1;entryX=0.5;entryY=1;entryDx=0;entryDy=0;entryPerimeter=0;startArrow=none;startFill=0;endArrow=classic;endFill=1;" parent="1" source="n-bltV9YuMnR6yL7ZxgR-215" target="n-bltV9YuMnR6yL7ZxgR-216" edge="1">
          <mxGeometry relative="1" as="geometry" />
        </mxCell>
        <mxCell id="n-bltV9YuMnR6yL7ZxgR-215" value="Объявление об ошибке заполнения" style="html=1;overflow=block;blockSpacing=1;whiteSpace=wrap;fontSize=14.9;fontColor=#333333;fontStyle=2;spacing=3.8;strokeColor=#333333;strokeOpacity=100;fillOpacity=100;rounded=1;absoluteArcSize=1;arcSize=7.5;fillColor=#3278ca;strokeWidth=0.8;" parent="1" vertex="1">
          <mxGeometry x="1511.25" y="710" width="100" height="74" as="geometry" />
        </mxCell>
        <mxCell id="n-bltV9YuMnR6yL7ZxgR-226" style="edgeStyle=orthogonalEdgeStyle;rounded=0;orthogonalLoop=1;jettySize=auto;html=1;entryX=0;entryY=0.5;entryDx=0;entryDy=0;startArrow=none;startFill=0;endArrow=classic;endFill=1;" parent="1" source="n-bltV9YuMnR6yL7ZxgR-216" target="n-bltV9YuMnR6yL7ZxgR-220" edge="1">
          <mxGeometry relative="1" as="geometry">
            <Array as="points">
              <mxPoint x="1455" y="155" />
            </Array>
          </mxGeometry>
        </mxCell>
        <mxCell id="n-bltV9YuMnR6yL7ZxgR-216" value="" style="points=[[0.25,0.25,0],[0.5,0,0],[0.75,0.25,0],[1,0.5,0],[0.75,0.75,0],[0.5,1,0],[0.25,0.75,0],[0,0.5,0]];shape=mxgraph.bpmn.gateway2;html=1;verticalLabelPosition=bottom;labelBackgroundColor=#ffffff;verticalAlign=top;align=center;perimeter=rhombusPerimeter;outlineConnect=0;outline=none;symbol=none;" parent="1" vertex="1">
          <mxGeometry x="1430" y="465" width="50" height="50" as="geometry" />
        </mxCell>
        <mxCell id="n-bltV9YuMnR6yL7ZxgR-223" style="edgeStyle=orthogonalEdgeStyle;rounded=0;orthogonalLoop=1;jettySize=auto;html=1;entryX=0.5;entryY=0;entryDx=0;entryDy=0;startArrow=none;startFill=0;endArrow=classic;endFill=1;" parent="1" source="n-bltV9YuMnR6yL7ZxgR-219" target="n-bltV9YuMnR6yL7ZxgR-196" edge="1">
          <mxGeometry relative="1" as="geometry" />
        </mxCell>
        <mxCell id="n-bltV9YuMnR6yL7ZxgR-219" value="Заполняем поле &quot;Начало акт. в СБЕ&quot;" style="html=1;overflow=block;blockSpacing=1;whiteSpace=wrap;fontSize=14.9;fontColor=#333333;fontStyle=2;spacing=3.8;strokeColor=#333333;strokeOpacity=100;fillOpacity=100;rounded=1;absoluteArcSize=1;arcSize=7.5;fillColor=#3278ca;strokeWidth=0.8;" parent="1" vertex="1">
          <mxGeometry x="1290" y="128.5" width="150" height="50" as="geometry" />
        </mxCell>
        <mxCell id="n-bltV9YuMnR6yL7ZxgR-225" style="edgeStyle=orthogonalEdgeStyle;rounded=0;orthogonalLoop=1;jettySize=auto;html=1;entryX=0.5;entryY=0;entryDx=0;entryDy=0;startArrow=none;startFill=0;endArrow=classic;endFill=1;" parent="1" source="n-bltV9YuMnR6yL7ZxgR-220" target="n-bltV9YuMnR6yL7ZxgR-207" edge="1">
          <mxGeometry relative="1" as="geometry" />
        </mxCell>
        <mxCell id="n-bltV9YuMnR6yL7ZxgR-220" value="Заполняем поле &quot;Конец акт. в СБЕ&quot;" style="html=1;overflow=block;blockSpacing=1;whiteSpace=wrap;fontSize=14.9;fontColor=#333333;fontStyle=2;spacing=3.8;strokeColor=#333333;strokeOpacity=100;fillOpacity=100;rounded=1;absoluteArcSize=1;arcSize=7.5;fillColor=#3278ca;strokeWidth=0.8;" parent="1" vertex="1">
          <mxGeometry x="1486.88" y="130" width="148.75" height="49.25" as="geometry" />
        </mxCell>
        <mxCell id="n-bltV9YuMnR6yL7ZxgR-242" style="edgeStyle=orthogonalEdgeStyle;rounded=0;orthogonalLoop=1;jettySize=auto;html=1;entryX=0.5;entryY=0;entryDx=0;entryDy=0;startArrow=none;startFill=0;endArrow=classic;endFill=1;" parent="1" source="n-bltV9YuMnR6yL7ZxgR-227" target="n-bltV9YuMnR6yL7ZxgR-230" edge="1">
          <mxGeometry relative="1" as="geometry">
            <Array as="points">
              <mxPoint x="1767" y="230" />
              <mxPoint x="1767" y="230" />
            </Array>
          </mxGeometry>
        </mxCell>
        <mxCell id="n-bltV9YuMnR6yL7ZxgR-227" value="Заполняем поле &quot;Номер распоряжения&quot;" style="html=1;overflow=block;blockSpacing=1;whiteSpace=wrap;fontSize=14.9;fontColor=#333333;fontStyle=2;spacing=3.8;strokeColor=#333333;strokeOpacity=100;fillOpacity=100;rounded=1;absoluteArcSize=1;arcSize=7.5;fillColor=#3278ca;strokeWidth=0.8;" parent="1" vertex="1">
          <mxGeometry x="1680" y="130" width="170" height="50" as="geometry" />
        </mxCell>
        <mxCell id="n-bltV9YuMnR6yL7ZxgR-229" style="edgeStyle=orthogonalEdgeStyle;rounded=0;orthogonalLoop=1;jettySize=auto;html=1;entryX=0.5;entryY=0;entryDx=0;entryDy=0;startArrow=none;startFill=0;endArrow=classic;endFill=1;" parent="1" source="n-bltV9YuMnR6yL7ZxgR-230" target="n-bltV9YuMnR6yL7ZxgR-232" edge="1">
          <mxGeometry relative="1" as="geometry">
            <Array as="points">
              <mxPoint x="1761.88" y="440" />
              <mxPoint x="1761.88" y="440" />
            </Array>
          </mxGeometry>
        </mxCell>
        <mxCell id="n-bltV9YuMnR6yL7ZxgR-230" value="Проверка значения поля" style="html=1;overflow=block;blockSpacing=1;whiteSpace=wrap;fontSize=14.9;fontColor=#333333;fontStyle=2;spacing=3.8;strokeColor=#333333;strokeOpacity=100;fillOpacity=100;rounded=1;absoluteArcSize=1;arcSize=7.5;fillColor=#3278ca;strokeWidth=0.8;" parent="1" vertex="1">
          <mxGeometry x="1721.88" y="370" width="90" height="60" as="geometry" />
        </mxCell>
        <mxCell id="n-bltV9YuMnR6yL7ZxgR-231" style="edgeStyle=orthogonalEdgeStyle;rounded=0;orthogonalLoop=1;jettySize=auto;html=1;startArrow=none;startFill=0;endArrow=classic;endFill=1;entryX=0;entryY=0.5;entryDx=0;entryDy=0;exitX=0;exitY=0.5;exitDx=0;exitDy=0;" parent="1" source="n-bltV9YuMnR6yL7ZxgR-232" target="n-bltV9YuMnR6yL7ZxgR-236" edge="1">
          <mxGeometry relative="1" as="geometry">
            <mxPoint x="1625.63" y="650" as="targetPoint" />
            <Array as="points">
              <mxPoint x="1696" y="500" />
              <mxPoint x="1696" y="651" />
            </Array>
          </mxGeometry>
        </mxCell>
        <mxCell id="zSh3O-m8_DfjsnNPeC-v-6" style="edgeStyle=orthogonalEdgeStyle;rounded=0;orthogonalLoop=1;jettySize=auto;html=1;entryX=0;entryY=0.5;entryDx=0;entryDy=0;fontSize=13;" parent="1" source="n-bltV9YuMnR6yL7ZxgR-232" target="n-bltV9YuMnR6yL7ZxgR-244" edge="1">
          <mxGeometry relative="1" as="geometry" />
        </mxCell>
        <mxCell id="n-bltV9YuMnR6yL7ZxgR-232" value="Есть совпадения с элементами тек.таблицы приказов?" style="html=1;overflow=block;blockSpacing=1;shape=mxgraph.bpmn.shape;perimeter=rhombusPerimeter;background=gateway;verticalLabelPosition=bottom;verticalAlign=top;outline=none;symbol=exclusiveGw;strokeColor=#333333;strokeOpacity=100;fillOpacity=100;rounded=1;absoluteArcSize=1;arcSize=12;fillColor=#ffffff;strokeWidth=0.8;whiteSpace=wrap;fontSize=13.3;fontColor=#333333;align=center;spacing=0;" parent="1" vertex="1">
          <mxGeometry x="1708.7600000000002" y="450" width="108.12" height="100" as="geometry" />
        </mxCell>
        <mxCell id="n-bltV9YuMnR6yL7ZxgR-233" value="Нет" style="text;html=1;resizable=0;autosize=1;align=center;verticalAlign=middle;points=[];fillColor=none;strokeColor=none;rounded=0;" parent="1" vertex="1">
          <mxGeometry x="1790" y="515" width="40" height="20" as="geometry" />
        </mxCell>
        <mxCell id="n-bltV9YuMnR6yL7ZxgR-234" value="Да" style="text;html=1;resizable=0;autosize=1;align=center;verticalAlign=middle;points=[];fillColor=none;strokeColor=none;rounded=0;" parent="1" vertex="1">
          <mxGeometry x="1685.63" y="480" width="30" height="20" as="geometry" />
        </mxCell>
        <mxCell id="n-bltV9YuMnR6yL7ZxgR-235" style="edgeStyle=orthogonalEdgeStyle;rounded=0;orthogonalLoop=1;jettySize=auto;html=1;entryX=0.5;entryY=0;entryDx=0;entryDy=0;startArrow=none;startFill=0;endArrow=classic;endFill=1;" parent="1" source="n-bltV9YuMnR6yL7ZxgR-236" target="n-bltV9YuMnR6yL7ZxgR-238" edge="1">
          <mxGeometry relative="1" as="geometry" />
        </mxCell>
        <mxCell id="n-bltV9YuMnR6yL7ZxgR-236" value="Обводка поля красным цветом" style="html=1;overflow=block;blockSpacing=1;whiteSpace=wrap;fontSize=14.9;fontColor=#333333;fontStyle=2;spacing=3.8;strokeColor=#333333;strokeOpacity=100;fillOpacity=100;rounded=1;absoluteArcSize=1;arcSize=7.5;fillColor=#3278ca;strokeWidth=0.8;" parent="1" vertex="1">
          <mxGeometry x="1715.63" y="614" width="102.5" height="74" as="geometry" />
        </mxCell>
        <mxCell id="n-bltV9YuMnR6yL7ZxgR-237" style="edgeStyle=orthogonalEdgeStyle;rounded=0;orthogonalLoop=1;jettySize=auto;html=1;entryX=0.5;entryY=1;entryDx=0;entryDy=0;entryPerimeter=0;startArrow=none;startFill=0;endArrow=classic;endFill=1;" parent="1" source="n-bltV9YuMnR6yL7ZxgR-238" target="n-bltV9YuMnR6yL7ZxgR-239" edge="1">
          <mxGeometry relative="1" as="geometry" />
        </mxCell>
        <mxCell id="n-bltV9YuMnR6yL7ZxgR-238" value="Объявление об ошибке заполнения" style="html=1;overflow=block;blockSpacing=1;whiteSpace=wrap;fontSize=14.9;fontColor=#333333;fontStyle=2;spacing=3.8;strokeColor=#333333;strokeOpacity=100;fillOpacity=100;rounded=1;absoluteArcSize=1;arcSize=7.5;fillColor=#3278ca;strokeWidth=0.8;" parent="1" vertex="1">
          <mxGeometry x="1716.88" y="710" width="100" height="74" as="geometry" />
        </mxCell>
        <mxCell id="n-bltV9YuMnR6yL7ZxgR-241" style="edgeStyle=orthogonalEdgeStyle;rounded=0;orthogonalLoop=1;jettySize=auto;html=1;entryX=0;entryY=0.5;entryDx=0;entryDy=0;startArrow=none;startFill=0;endArrow=classic;endFill=1;" parent="1" source="n-bltV9YuMnR6yL7ZxgR-239" target="n-bltV9YuMnR6yL7ZxgR-227" edge="1">
          <mxGeometry relative="1" as="geometry" />
        </mxCell>
        <mxCell id="n-bltV9YuMnR6yL7ZxgR-239" value="" style="points=[[0.25,0.25,0],[0.5,0,0],[0.75,0.25,0],[1,0.5,0],[0.75,0.75,0],[0.5,1,0],[0.25,0.75,0],[0,0.5,0]];shape=mxgraph.bpmn.gateway2;html=1;verticalLabelPosition=bottom;labelBackgroundColor=#ffffff;verticalAlign=top;align=center;perimeter=rhombusPerimeter;outlineConnect=0;outline=none;symbol=none;" parent="1" vertex="1">
          <mxGeometry x="1635.63" y="465" width="50" height="50" as="geometry" />
        </mxCell>
        <mxCell id="n-bltV9YuMnR6yL7ZxgR-244" value="Указываем булевое значение поля &quot;&quot;Оповестить владельцев БП/ПП" style="html=1;overflow=block;blockSpacing=1;whiteSpace=wrap;fontSize=14.9;fontColor=#333333;fontStyle=2;spacing=3.8;strokeColor=#333333;strokeOpacity=100;fillOpacity=100;rounded=1;absoluteArcSize=1;arcSize=7.5;fillColor=#3278ca;strokeWidth=0.8;" parent="1" vertex="1">
          <mxGeometry x="1900" y="83" width="118" height="137" as="geometry" />
        </mxCell>
        <mxCell id="n-bltV9YuMnR6yL7ZxgR-245" value="&lt;font style=&quot;font-size: 15px&quot;&gt;Указываем булевое значение &quot;&lt;span style=&quot;color: rgb(5 , 5 , 5) ; font-family: &amp;#34;inter&amp;#34; , sans-serif ; font-style: normal ; letter-spacing: -0.003px ; background-color: rgb(255 , 255 , 255)&quot;&gt;Разрешить ввод оценки после конца акт. в ПП&lt;/span&gt;&quot;&lt;/font&gt;" style="html=1;overflow=block;blockSpacing=1;whiteSpace=wrap;fontSize=14.9;fontColor=#333333;fontStyle=2;spacing=3.8;strokeColor=#333333;strokeOpacity=100;fillOpacity=100;rounded=1;absoluteArcSize=1;arcSize=7.5;fillColor=#3278ca;strokeWidth=0.8;" parent="1" vertex="1">
          <mxGeometry x="2080" y="85" width="130" height="140" as="geometry" />
        </mxCell>
        <mxCell id="n-bltV9YuMnR6yL7ZxgR-246" value="&lt;font style=&quot;font-size: 13px&quot;&gt;Указываем булевое значение&amp;nbsp;&lt;span style=&quot;color: rgb(5 , 5 , 5) ; font-family: &amp;#34;inter&amp;#34; , sans-serif ; font-style: normal ; letter-spacing: -0.003px ; background-color: rgb(255 , 255 , 255)&quot;&gt;&quot;Разрешить ввод оценки после конца акт. в СБЕ&quot;&lt;/span&gt;&lt;/font&gt;" style="html=1;overflow=block;blockSpacing=1;whiteSpace=wrap;fontSize=14.9;fontColor=#333333;fontStyle=2;spacing=3.8;strokeColor=#333333;strokeOpacity=100;fillOpacity=100;rounded=1;absoluteArcSize=1;arcSize=7.5;fillColor=#3278ca;strokeWidth=0.8;" parent="1" vertex="1">
          <mxGeometry x="2260" y="83" width="150" height="137" as="geometry" />
        </mxCell>
        <UserObject label="" lucidchartObjectId="~iI4lf0W9H0U" id="n-bltV9YuMnR6yL7ZxgR-247">
          <mxCell style="html=1;jettySize=18;whiteSpace=wrap;fontSize=13;strokeColor=#333333;strokeOpacity=100;strokeWidth=0.8;rounded=1;arcSize=24;edgeStyle=orthogonalEdgeStyle;startArrow=none;endArrow=block;endFill=1;exitX=1.003;exitY=0.5;exitPerimeter=0;entryX=-0.003;entryY=0.468;entryPerimeter=0;" parent="1" source="n-bltV9YuMnR6yL7ZxgR-244" target="n-bltV9YuMnR6yL7ZxgR-245" edge="1">
            <mxGeometry width="100" height="100" relative="1" as="geometry">
              <Array as="points" />
            </mxGeometry>
          </mxCell>
        </UserObject>
        <UserObject label="" lucidchartObjectId="bjI4hKQD5cuS" id="n-bltV9YuMnR6yL7ZxgR-248">
          <mxCell style="html=1;jettySize=18;whiteSpace=wrap;fontSize=13;strokeColor=#333333;strokeOpacity=100;strokeWidth=0.8;rounded=1;arcSize=24;edgeStyle=orthogonalEdgeStyle;startArrow=none;endArrow=block;endFill=1;exitX=1.003;exitY=0.5;exitPerimeter=0;entryX=-0.003;entryY=0.536;entryPerimeter=0;" parent="1" source="n-bltV9YuMnR6yL7ZxgR-245" target="n-bltV9YuMnR6yL7ZxgR-246" edge="1">
            <mxGeometry width="100" height="100" relative="1" as="geometry">
              <Array as="points" />
            </mxGeometry>
          </mxCell>
        </UserObject>
        <mxCell id="zSh3O-m8_DfjsnNPeC-v-7" style="edgeStyle=orthogonalEdgeStyle;rounded=0;orthogonalLoop=1;jettySize=auto;html=1;entryX=0.5;entryY=0;entryDx=0;entryDy=0;fontSize=13;" parent="1" source="n-bltV9YuMnR6yL7ZxgR-249" target="zSh3O-m8_DfjsnNPeC-v-4" edge="1">
          <mxGeometry relative="1" as="geometry" />
        </mxCell>
        <mxCell id="n-bltV9YuMnR6yL7ZxgR-249" value="Нажимаем кнопку Создать" style="html=1;overflow=block;blockSpacing=1;whiteSpace=wrap;fontSize=14.9;fontColor=#333333;fontStyle=2;spacing=3.8;strokeColor=#333333;strokeOpacity=100;fillOpacity=100;rounded=1;absoluteArcSize=1;arcSize=7.5;fillColor=#3278ca;strokeWidth=0.8;" parent="1" vertex="1">
          <mxGeometry x="2455" y="83" width="135" height="137" as="geometry" />
        </mxCell>
        <UserObject label="" lucidchartObjectId="HkI47rHSs-mT" id="n-bltV9YuMnR6yL7ZxgR-250">
          <mxCell style="html=1;jettySize=18;whiteSpace=wrap;fontSize=13;strokeColor=#333333;strokeOpacity=100;strokeWidth=0.8;rounded=1;arcSize=24;edgeStyle=orthogonalEdgeStyle;startArrow=none;endArrow=block;endFill=1;exitX=1.003;exitY=0.5;exitPerimeter=0;entryX=-0.003;entryY=0.5;entryPerimeter=0;" parent="1" source="n-bltV9YuMnR6yL7ZxgR-246" target="n-bltV9YuMnR6yL7ZxgR-249" edge="1">
            <mxGeometry width="100" height="100" relative="1" as="geometry">
              <Array as="points" />
            </mxGeometry>
          </mxCell>
        </UserObject>
        <mxCell id="zSh3O-m8_DfjsnNPeC-v-32" style="edgeStyle=orthogonalEdgeStyle;rounded=0;orthogonalLoop=1;jettySize=auto;html=1;entryX=0;entryY=0.5;entryDx=0;entryDy=0;fontSize=14;exitX=0.5;exitY=1;exitDx=0;exitDy=0;" parent="1" source="zSh3O-m8_DfjsnNPeC-v-3" target="zSh3O-m8_DfjsnNPeC-v-12" edge="1">
          <mxGeometry relative="1" as="geometry" />
        </mxCell>
        <mxCell id="zSh3O-m8_DfjsnNPeC-v-37" style="edgeStyle=orthogonalEdgeStyle;rounded=0;orthogonalLoop=1;jettySize=auto;html=1;entryX=0.5;entryY=0;entryDx=0;entryDy=0;fontSize=14;" parent="1" source="zSh3O-m8_DfjsnNPeC-v-3" target="zSh3O-m8_DfjsnNPeC-v-5" edge="1">
          <mxGeometry relative="1" as="geometry" />
        </mxCell>
        <mxCell id="zSh3O-m8_DfjsnNPeC-v-3" value="&lt;font style=&quot;font-size: 13px&quot;&gt;Значение поля &quot;&lt;span style=&quot;color: rgb(5 , 5 , 5) ; font-family: &amp;#34;inter&amp;#34; , sans-serif ; letter-spacing: -0.003px ; background-color: rgb(255 , 255 , 255)&quot;&gt;Разрешить ввод оценки после конца акт. в ПП&lt;/span&gt;&quot; Истина?&lt;/font&gt;" style="html=1;overflow=block;blockSpacing=1;shape=mxgraph.bpmn.shape;perimeter=rhombusPerimeter;background=gateway;verticalLabelPosition=bottom;verticalAlign=top;outline=none;symbol=exclusiveGw;strokeColor=#333333;strokeOpacity=100;fillOpacity=100;rounded=1;absoluteArcSize=1;arcSize=12;fillColor=#ffffff;strokeWidth=0.8;whiteSpace=wrap;fontSize=13.3;fontColor=#333333;align=center;spacing=0;" parent="1" vertex="1">
          <mxGeometry x="2750" y="450" width="80" height="80" as="geometry" />
        </mxCell>
        <mxCell id="zSh3O-m8_DfjsnNPeC-v-14" style="edgeStyle=orthogonalEdgeStyle;rounded=0;orthogonalLoop=1;jettySize=auto;html=1;entryX=0;entryY=0.5;entryDx=0;entryDy=0;fontSize=13;exitX=0.5;exitY=1;exitDx=0;exitDy=0;" parent="1" source="zSh3O-m8_DfjsnNPeC-v-4" target="zSh3O-m8_DfjsnNPeC-v-11" edge="1">
          <mxGeometry relative="1" as="geometry" />
        </mxCell>
        <mxCell id="zSh3O-m8_DfjsnNPeC-v-22" style="edgeStyle=orthogonalEdgeStyle;rounded=0;orthogonalLoop=1;jettySize=auto;html=1;entryX=0.5;entryY=0;entryDx=0;entryDy=0;fontSize=14;" parent="1" source="zSh3O-m8_DfjsnNPeC-v-4" target="zSh3O-m8_DfjsnNPeC-v-3" edge="1">
          <mxGeometry relative="1" as="geometry">
            <mxPoint x="2745" y="465" as="targetPoint" />
          </mxGeometry>
        </mxCell>
        <mxCell id="zSh3O-m8_DfjsnNPeC-v-4" value="&lt;font style=&quot;font-size: 12px&quot;&gt;Значение поля &quot;Оповестить владельцев БП/ПП&quot; Истина?&lt;/font&gt;" style="html=1;overflow=block;blockSpacing=1;shape=mxgraph.bpmn.shape;perimeter=rhombusPerimeter;background=gateway;verticalLabelPosition=bottom;verticalAlign=top;outline=none;symbol=exclusiveGw;strokeColor=#333333;strokeOpacity=100;fillOpacity=100;rounded=1;absoluteArcSize=1;arcSize=12;fillColor=#ffffff;strokeWidth=0.8;whiteSpace=wrap;fontSize=13.3;fontColor=#333333;align=center;spacing=0;" parent="1" vertex="1">
          <mxGeometry x="2482.5" y="360" width="80" height="80" as="geometry" />
        </mxCell>
        <mxCell id="zSh3O-m8_DfjsnNPeC-v-31" style="edgeStyle=orthogonalEdgeStyle;rounded=0;orthogonalLoop=1;jettySize=auto;html=1;entryX=0;entryY=0.5;entryDx=0;entryDy=0;fontSize=14;exitX=0.5;exitY=1;exitDx=0;exitDy=0;" parent="1" source="zSh3O-m8_DfjsnNPeC-v-5" target="zSh3O-m8_DfjsnNPeC-v-13" edge="1">
          <mxGeometry relative="1" as="geometry" />
        </mxCell>
        <mxCell id="zSh3O-m8_DfjsnNPeC-v-47" style="edgeStyle=orthogonalEdgeStyle;rounded=0;orthogonalLoop=1;jettySize=auto;html=1;entryX=0.5;entryY=0;entryDx=0;entryDy=0;entryPerimeter=0;fontSize=14;" parent="1" source="zSh3O-m8_DfjsnNPeC-v-5" target="zSh3O-m8_DfjsnNPeC-v-46" edge="1">
          <mxGeometry relative="1" as="geometry" />
        </mxCell>
        <mxCell id="zSh3O-m8_DfjsnNPeC-v-5" value="&lt;font style=&quot;font-size: 12px&quot;&gt;Значение поля &quot;&lt;span style=&quot;color: rgb(5 , 5 , 5) ; font-family: &amp;#34;inter&amp;#34; , sans-serif ; font-size: 13px ; letter-spacing: -0.003px ; background-color: rgb(255 , 255 , 255)&quot;&gt;Разрешить ввод оценки после конца акт. в СБЕ&lt;/span&gt;&quot; Истина?&lt;/font&gt;" style="html=1;overflow=block;blockSpacing=1;shape=mxgraph.bpmn.shape;perimeter=rhombusPerimeter;background=gateway;verticalLabelPosition=bottom;verticalAlign=top;outline=none;symbol=exclusiveGw;strokeColor=#333333;strokeOpacity=100;fillOpacity=100;rounded=1;absoluteArcSize=1;arcSize=12;fillColor=#ffffff;strokeWidth=0.8;whiteSpace=wrap;fontSize=13.3;fontColor=#333333;align=center;spacing=0;" parent="1" vertex="1">
          <mxGeometry x="3010" y="640" width="80" height="80" as="geometry" />
        </mxCell>
        <mxCell id="zSh3O-m8_DfjsnNPeC-v-23" style="edgeStyle=orthogonalEdgeStyle;rounded=0;orthogonalLoop=1;jettySize=auto;html=1;entryX=0;entryY=0.5;entryDx=0;entryDy=0;fontSize=14;" parent="1" source="zSh3O-m8_DfjsnNPeC-v-11" target="zSh3O-m8_DfjsnNPeC-v-3" edge="1">
          <mxGeometry relative="1" as="geometry">
            <mxPoint x="2720" y="490" as="targetPoint" />
          </mxGeometry>
        </mxCell>
        <mxCell id="zSh3O-m8_DfjsnNPeC-v-11" value="Оповещения владельцев БП/ПП" style="html=1;overflow=block;blockSpacing=1;whiteSpace=wrap;fontSize=14.9;fontColor=#333333;fontStyle=2;spacing=3.8;strokeColor=#333333;strokeOpacity=100;fillOpacity=100;rounded=1;absoluteArcSize=1;arcSize=7.5;fillColor=#3278ca;strokeWidth=0.8;" parent="1" vertex="1">
          <mxGeometry x="2610" y="460" width="90" height="60" as="geometry" />
        </mxCell>
        <mxCell id="zSh3O-m8_DfjsnNPeC-v-33" style="edgeStyle=orthogonalEdgeStyle;rounded=0;orthogonalLoop=1;jettySize=auto;html=1;entryX=0;entryY=0.5;entryDx=0;entryDy=0;fontSize=14;" parent="1" source="zSh3O-m8_DfjsnNPeC-v-12" target="zSh3O-m8_DfjsnNPeC-v-5" edge="1">
          <mxGeometry relative="1" as="geometry" />
        </mxCell>
        <mxCell id="zSh3O-m8_DfjsnNPeC-v-12" value="Блокировка ввода&amp;nbsp;&lt;span style=&quot;font-size: 13px ; font-style: normal ; color: rgb(5 , 5 , 5) ; font-family: &amp;#34;inter&amp;#34; , sans-serif ; letter-spacing: -0.003px ; background-color: rgb(255 , 255 , 255)&quot;&gt;оценки после конца акт. в ПП&lt;/span&gt;&lt;span style=&quot;font-size: 13px ; font-style: normal&quot;&gt;&quot;&lt;/span&gt;" style="html=1;overflow=block;blockSpacing=1;whiteSpace=wrap;fontSize=14.9;fontColor=#333333;fontStyle=2;spacing=3.8;strokeColor=#333333;strokeOpacity=100;fillOpacity=100;rounded=1;absoluteArcSize=1;arcSize=7.5;fillColor=#3278ca;strokeWidth=0.8;" parent="1" vertex="1">
          <mxGeometry x="2840" y="642.5" width="100" height="75" as="geometry" />
        </mxCell>
        <mxCell id="zSh3O-m8_DfjsnNPeC-v-48" style="edgeStyle=orthogonalEdgeStyle;rounded=0;orthogonalLoop=1;jettySize=auto;html=1;entryX=0;entryY=0.5;entryDx=0;entryDy=0;entryPerimeter=0;fontSize=14;" parent="1" source="zSh3O-m8_DfjsnNPeC-v-13" target="zSh3O-m8_DfjsnNPeC-v-46" edge="1">
          <mxGeometry relative="1" as="geometry" />
        </mxCell>
        <mxCell id="zSh3O-m8_DfjsnNPeC-v-13" value="Блокировка ввода&amp;nbsp;&lt;span style=&quot;font-size: 13px ; font-style: normal ; color: rgb(5 , 5 , 5) ; font-family: &amp;#34;inter&amp;#34; , sans-serif ; letter-spacing: -0.003px ; background-color: rgb(255 , 255 , 255)&quot;&gt;оценки после конца акт. в СБЕ&lt;/span&gt;&lt;span style=&quot;font-size: 13px ; font-style: normal&quot;&gt;&quot;&lt;/span&gt;" style="html=1;overflow=block;blockSpacing=1;whiteSpace=wrap;fontSize=14.9;fontColor=#333333;fontStyle=2;spacing=3.8;strokeColor=#333333;strokeOpacity=100;fillOpacity=100;rounded=1;absoluteArcSize=1;arcSize=7.5;fillColor=#3278ca;strokeWidth=0.8;" parent="1" vertex="1">
          <mxGeometry x="3121" y="830" width="100" height="75" as="geometry" />
        </mxCell>
        <mxCell id="zSh3O-m8_DfjsnNPeC-v-15" value="Да" style="text;html=1;resizable=0;autosize=1;align=center;verticalAlign=middle;points=[];fillColor=none;strokeColor=none;rounded=0;fontSize=14;fontStyle=1" parent="1" vertex="1">
          <mxGeometry x="2470" y="420" width="30" height="20" as="geometry" />
        </mxCell>
        <mxCell id="zSh3O-m8_DfjsnNPeC-v-19" value="Нет" style="text;html=1;resizable=0;autosize=1;align=center;verticalAlign=middle;points=[];fillColor=none;strokeColor=none;rounded=0;fontStyle=1;fontSize=14;" parent="1" vertex="1">
          <mxGeometry x="2550" y="370" width="40" height="20" as="geometry" />
        </mxCell>
        <mxCell id="zSh3O-m8_DfjsnNPeC-v-35" value="Нет" style="text;html=1;resizable=0;autosize=1;align=center;verticalAlign=middle;points=[];fillColor=none;strokeColor=none;rounded=0;fontStyle=1;fontSize=14;" parent="1" vertex="1">
          <mxGeometry x="2740" y="510" width="40" height="20" as="geometry" />
        </mxCell>
        <mxCell id="zSh3O-m8_DfjsnNPeC-v-36" value="Нет" style="text;html=1;resizable=0;autosize=1;align=center;verticalAlign=middle;points=[];fillColor=none;strokeColor=none;rounded=0;fontStyle=1;fontSize=14;" parent="1" vertex="1">
          <mxGeometry x="2990" y="697.5" width="40" height="20" as="geometry" />
        </mxCell>
        <mxCell id="zSh3O-m8_DfjsnNPeC-v-38" value="Да" style="text;html=1;resizable=0;autosize=1;align=center;verticalAlign=middle;points=[];fillColor=none;strokeColor=none;rounded=0;fontSize=14;fontStyle=1" parent="1" vertex="1">
          <mxGeometry x="2820" y="460" width="30" height="20" as="geometry" />
        </mxCell>
        <mxCell id="zSh3O-m8_DfjsnNPeC-v-39" value="Да" style="text;html=1;resizable=0;autosize=1;align=center;verticalAlign=middle;points=[];fillColor=none;strokeColor=none;rounded=0;fontSize=14;fontStyle=1" parent="1" vertex="1">
          <mxGeometry x="3080" y="650" width="30" height="20" as="geometry" />
        </mxCell>
        <mxCell id="zSh3O-m8_DfjsnNPeC-v-40" value="" style="html=1;overflow=block;blockSpacing=1;whiteSpace=wrap;shape=mxgraph.bpmn.shape;verticalLabelPosition=bottom;verticalAlign=top;outline=throwing;symbol=message;fontSize=13;spacing=0;strokeColor=#333333;strokeOpacity=100;fillOpacity=100;rounded=1;absoluteArcSize=1;arcSize=7.5;fillColor=#d7e9ff;strokeWidth=0.8;" parent="1" vertex="1">
          <mxGeometry x="2600" y="500" width="30" height="35" as="geometry" />
        </mxCell>
        <mxCell id="zSh3O-m8_DfjsnNPeC-v-51" style="edgeStyle=orthogonalEdgeStyle;rounded=0;orthogonalLoop=1;jettySize=auto;html=1;entryX=0;entryY=0.5;entryDx=0;entryDy=0;fontSize=14;" parent="1" source="zSh3O-m8_DfjsnNPeC-v-42" target="zSh3O-m8_DfjsnNPeC-v-50" edge="1">
          <mxGeometry relative="1" as="geometry" />
        </mxCell>
        <mxCell id="zSh3O-m8_DfjsnNPeC-v-42" value="Оповещения владельцев БП/СБЕ" style="html=1;overflow=block;blockSpacing=1;whiteSpace=wrap;fontSize=14.9;fontColor=#333333;fontStyle=2;spacing=3.8;strokeColor=#333333;strokeOpacity=100;fillOpacity=100;rounded=1;absoluteArcSize=1;arcSize=7.5;fillColor=#3278ca;strokeWidth=0.8;" parent="1" vertex="1">
          <mxGeometry x="3390" y="729" width="90" height="60" as="geometry" />
        </mxCell>
        <mxCell id="zSh3O-m8_DfjsnNPeC-v-43" value="" style="html=1;overflow=block;blockSpacing=1;whiteSpace=wrap;shape=mxgraph.bpmn.shape;verticalLabelPosition=bottom;verticalAlign=top;outline=throwing;symbol=message;fontSize=13;spacing=0;strokeColor=#333333;strokeOpacity=100;fillOpacity=100;rounded=1;absoluteArcSize=1;arcSize=7.5;fillColor=#d7e9ff;strokeWidth=0.8;" parent="1" vertex="1">
          <mxGeometry x="3380" y="776" width="30" height="35" as="geometry" />
        </mxCell>
        <mxCell id="zSh3O-m8_DfjsnNPeC-v-49" style="edgeStyle=orthogonalEdgeStyle;rounded=0;orthogonalLoop=1;jettySize=auto;html=1;entryX=0;entryY=0.5;entryDx=0;entryDy=0;fontSize=14;" parent="1" source="zSh3O-m8_DfjsnNPeC-v-46" target="zSh3O-m8_DfjsnNPeC-v-42" edge="1">
          <mxGeometry relative="1" as="geometry" />
        </mxCell>
        <mxCell id="zSh3O-m8_DfjsnNPeC-v-46" value="" style="points=[[0.25,0.25,0],[0.5,0,0],[0.75,0.25,0],[1,0.5,0],[0.75,0.75,0],[0.5,1,0],[0.25,0.75,0],[0,0.5,0]];shape=mxgraph.bpmn.gateway2;html=1;verticalLabelPosition=bottom;labelBackgroundColor=#ffffff;verticalAlign=top;align=center;perimeter=rhombusPerimeter;outlineConnect=0;outline=none;symbol=none;" parent="1" vertex="1">
          <mxGeometry x="3280" y="734" width="50" height="50" as="geometry" />
        </mxCell>
        <mxCell id="zSh3O-m8_DfjsnNPeC-v-50" value="Создание приказа на актуализацию" style="html=1;overflow=block;blockSpacing=1;whiteSpace=wrap;shape=mxgraph.bpmn.shape;verticalLabelPosition=bottom;verticalAlign=top;outline=end;fontSize=13.3;fontColor=#333333;align=center;spacing=0;strokeColor=#333333;strokeOpacity=100;fillOpacity=100;rounded=1;absoluteArcSize=1;arcSize=7.5;fillColor=#d7e9ff;strokeWidth=0.8;" parent="1" vertex="1">
          <mxGeometry x="3561" y="717.5" width="82" height="83.5" as="geometry" />
        </mxCell>
      </root>
    </mxGraphModel>
  </diagram>
</mxfile>
